<svg width="61" height="60" viewBox="0 0 61 60" fill="none" xmlns="http://www.w3.org/2000/svg">
<path fill-rule="evenodd" clip-rule="evenodd" d="M30.2175 0C13.6497 0 0.217529 13.4322 0.217529 30C0.217529 46.5678 13.6497 60 30.2175 60C46.7853 60 60.2175 46.5678 60.2175 30C60.2175 13.4322 46.7853 0 30.2175 0ZM30.2175 58.0642C14.718 58.0642 2.1533 45.4996 2.1533 30C2.1533 14.5004 14.718 1.93577 30.2175 1.93577C45.7171 1.93577 58.2818 14.5004 58.2818 30C58.2818 45.4996 45.7171 58.0642 30.2175 58.0642Z" fill="white"/>
<path fill-rule="evenodd" clip-rule="evenodd" d="M15.3757 32.7498C17.1264 32.7498 18.6407 33.0464 19.3811 33.4768L15.4649 18.9518C15.4159 18.9608 15.3668 18.9652 15.3155 18.9652H15.3021L11.5778 33.3675C12.374 32.9951 13.7767 32.7498 15.3757 32.7498ZM38.217 53.8225C36.1429 54.8015 33.188 55.4126 29.9096 55.4126C26.4261 55.4126 23.3106 54.7212 21.2254 53.6352C20.6902 53.343 20.1081 52.2435 20.8396 51.9023C22.6683 53.178 26.047 54.0343 29.9119 54.0343C33.8503 54.0343 37.2825 53.1445 39.0845 51.8287C39.332 52.054 39.5707 53.0486 38.217 53.8225ZM12.7732 13.9451C15.6701 16.9826 21.696 19.1392 28.7767 19.38C27.8534 18.9095 27.2156 17.9193 27.2156 16.773C27.2156 15.1717 28.46 13.8738 29.9944 13.8738C31.5287 13.8738 32.7732 15.1717 32.7732 16.773C32.7732 17.9237 32.1309 18.9184 31.1987 19.3867C38.3842 19.186 44.5104 17.0161 47.4409 13.9451C47.0261 15.0691 46.3369 16.1285 45.4226 17.0941C44.5952 16.6949 43.634 17.5669 43.9886 18.3608C40.9511 20.7605 36.4507 22.3305 31.2522 22.5335C30.6768 24.2128 30.8062 26.4719 30.6902 32.7966C30.5809 38.7333 33.2526 49.2685 33.5805 50.533C34.4212 50.3412 35.1237 50.087 35.6233 49.7859C35.7772 49.8997 35.9221 50.4037 35.0903 50.7962C33.8146 51.2913 31.9971 51.6013 29.981 51.6013C27.8401 51.6013 25.9221 51.2511 24.6376 50.7003C24.3097 50.5531 23.9507 49.9955 24.3989 49.8238C24.9475 50.1405 25.7259 50.4037 26.6536 50.5932C26.8856 49.9799 28.4288 45.6914 29.1068 37.9683C29.8427 29.603 29.0131 24.4938 28.7098 22.529C23.6228 22.3038 19.2584 20.8363 16.2723 18.4389C16.7451 17.5558 15.5921 16.4897 14.7424 17.054C13.8726 16.1084 13.1746 15.0335 12.7732 13.9451ZM36.2678 52.2413C37.3182 51.6035 37.1331 50.7873 36.9391 50.6022C35.5408 51.6838 32.878 52.4153 29.8249 52.4153C26.8276 52.4153 24.2071 51.7105 22.7888 50.6624C22.2223 50.9434 22.675 51.8466 23.0898 52.0874C24.7067 52.9817 27.1242 53.5482 29.8249 53.5482C32.3673 53.5482 34.6576 53.0442 36.2678 52.2413ZM45.0591 32.8524C46.8097 32.8524 48.3262 33.149 49.0644 33.5794L45.1483 19.0544C45.0992 19.0633 45.0501 19.0678 44.9988 19.0678H44.9855L41.2611 33.4701C42.0573 33.0999 43.46 32.8524 45.0591 32.8524ZM44.9988 17.112C44.4815 17.112 44.0622 17.5491 44.0622 18.0888C44.0622 18.517 44.3253 18.8805 44.6933 19.0121L40.8508 33.7132C40.6701 33.8559 40.572 34.012 40.572 34.1749C40.572 34.9063 42.5814 35.4996 45.0613 35.4996C47.539 35.4996 49.5484 34.9063 49.5484 34.1749C49.5484 34.1414 49.5439 34.1102 49.5372 34.0767H49.5484L45.4293 18.9585C45.7326 18.7957 45.9377 18.4679 45.9377 18.0888C45.9355 17.5513 45.5162 17.112 44.9988 17.112ZM15.3155 17.0094C15.8329 17.0094 16.2522 17.4465 16.2522 17.9862C16.2522 18.3653 16.0448 18.6931 15.7437 18.8559L19.8628 33.9741H19.8517C19.8606 34.0054 19.8628 34.0388 19.8628 34.0723C19.8628 34.8038 17.8534 35.397 15.3757 35.397C12.898 35.397 10.8887 34.8038 10.8887 34.0723C10.8887 33.9095 10.9868 33.7556 11.1674 33.6129L15.01 18.9117C14.6442 18.7779 14.3789 18.4144 14.3789 17.9884C14.3789 17.4465 14.7981 17.0094 15.3155 17.0094Z" fill="white"/>
<path fill-rule="evenodd" clip-rule="evenodd" d="M24.479 10.5732V11.3537H20.9666V5.89878H22.3292V10.5754H24.479V10.5732ZM25.2507 11.3537V7.45765H26.6133V11.3537H25.2507ZM25.2507 5.89878H26.6133V6.67933H25.2507V5.89878ZM28.752 10.1851C28.752 10.4438 28.8814 10.5754 29.1401 10.5754C29.4032 10.5754 29.5326 10.4461 29.5326 10.1851L29.537 8.62179C29.5348 8.36309 29.4032 8.23151 29.1445 8.23151C28.8881 8.23151 28.7587 8.36086 28.7587 8.62179L28.752 10.1851ZM27.3894 9.40457V5.89655H28.752V7.45988C28.8167 7.45765 28.8836 7.45542 28.9505 7.45542H29.3319C30.3756 7.45542 30.8996 7.84347 30.8996 8.61956L30.8952 10.1829C30.893 10.959 30.3733 11.3493 29.3363 11.3493L28.946 11.3537C27.909 11.3537 27.3916 10.9634 27.3916 10.1851V9.40457H27.3894ZM33.0361 11.3537L31.6735 11.3582L31.678 8.62179C31.678 7.8457 32.1976 7.45542 33.2324 7.45319L33.6249 7.45765C34.6641 7.45765 35.1838 7.8457 35.1838 8.62179V8.82027H33.8234L33.8189 8.62179C33.8189 8.36309 33.6896 8.23151 33.4286 8.23151C33.1722 8.23151 33.0428 8.36086 33.0384 8.62179L33.0361 11.3537ZM37.3225 10.1896C37.3225 10.4461 37.4541 10.5754 37.7128 10.5754H38.103V9.79708H37.7128C37.4518 9.79485 37.3225 9.92643 37.3225 10.1896ZM38.1008 9.01653V8.62625C38.1008 8.36755 37.9715 8.23597 37.7083 8.23597C37.4518 8.23597 37.3225 8.36532 37.3225 8.62625L37.318 8.8225H35.9576L35.9621 8.62625C35.9621 7.8457 36.4817 7.45765 37.5165 7.45765L37.9068 7.46211C38.9438 7.46211 39.4634 7.85016 39.4657 8.62848V11.356H37.5165C36.4773 11.356 35.9576 10.9679 35.9576 10.1918C35.9576 9.40904 36.4773 9.01876 37.5165 9.01876H38.1008V9.01653Z" fill="white"/>
</svg>
