<svg width="154" height="55" viewBox="0 0 154 55" fill="none" xmlns="http://www.w3.org/2000/svg">
<path fill-rule="evenodd" clip-rule="evenodd" d="M15.2437 6.34946C14.6706 6.34946 14.0999 6.08525 13.7484 5.64008L12.5263 6.93217C13.2644 7.58726 14.1445 7.8744 15.1438 7.8744C16.7499 7.8744 18.1453 7.07936 18.1453 5.40844C18.1453 2.78445 14.5623 3.66153 14.5623 2.29705C14.5623 1.73727 15.2329 1.52493 15.7169 1.52493C16.1335 1.52493 16.6849 1.68418 16.9582 2.02319L18.1357 0.784182C17.4759 0.220777 16.6295 0 15.7494 0C14.2191 0 12.7803 0.836059 12.7803 2.43338C12.7803 4.92949 16.4321 4.18995 16.4321 5.56649C16.4308 6.09491 15.8036 6.34946 15.2437 6.34946ZM26.1519 7.87319C28.307 7.87319 29.4279 6.55938 29.4279 4.79316V0.190617H27.7122V4.72922C27.7122 5.65094 27.0525 6.34826 26.1519 6.34826C25.2392 6.34826 24.5795 5.64973 24.5795 4.72922V0.190617H22.8626V4.79437C22.8626 6.56059 23.9847 7.87319 26.1519 7.87319ZM37.172 0.190617H34.28V7.68378H35.9969V4.7618H37.2502C38.8889 4.7618 40.1314 4.22131 40.1314 2.46595C40.1302 0.687668 38.7889 0.190617 37.172 0.190617ZM37.1383 3.36595H35.9957V1.58767H36.8746C37.5356 1.58767 38.3483 1.69263 38.3483 2.46595C38.3483 3.16448 37.7439 3.36595 37.1383 3.36595ZM50.3774 6.15885H46.6053V4.63512H49.9812V3.11139H46.6053V1.71314H50.1787V0.190617H44.8908V7.68378H50.3786V6.15885H50.3774ZM57.1089 4.6882H57.9553L59.5843 7.68378H61.6395L59.6589 4.5181C60.7594 4.32748 61.3421 3.51193 61.3421 2.46595C61.3421 0.719035 60.0009 0.190617 58.4068 0.190617H55.3932V7.68378H57.1077V4.6882H57.1089ZM57.1089 1.58767H58.231C58.8583 1.58767 59.5614 1.70349 59.5614 2.45389C59.5614 3.26944 58.7475 3.29115 58.1214 3.29115H57.1089V1.58767Z" fill="#0B1035"/>
<path fill-rule="evenodd" clip-rule="evenodd" d="M16.0576 10.005C10.8805 10.005 5.6359 11.6457 2.03235 14.9236L7.27573 20.0956C9.37429 17.8251 12.0604 16.4389 15.2726 16.4389C18.6799 16.4389 21.5647 18.5839 21.5647 21.9257C13.3715 21.9257 0.0012207 22.1151 0.0012207 32.7113C0.0012207 38.8918 5.37583 42.1721 11.3392 42.1721C15.3376 42.1721 19.2711 40.8474 21.4322 37.5672H21.5647V41.4157H30.6079V25.837C30.6079 15.6185 27.5268 10.005 16.0576 10.005ZM103.673 18.3306C105.114 18.3306 106.491 18.5827 107.868 18.9603V10.321C106.95 10.0677 105.704 10.005 104.589 10.005C100.265 10.005 97.5112 11.9606 95.415 15.6824H95.2826V10.7614H85.4508V41.4157H95.2826V28.613C95.2838 22.4928 96.2013 18.3306 103.673 18.3306ZM74.7136 1.67935H64.8831V10.7614H58.591V18.3306H64.8831V32.9007C64.8831 39.5867 69.929 42.1733 76.4823 42.1733C78.7771 42.1733 81.2007 41.9839 83.3655 41.2275V33.3434C82.5131 34.0999 80.4169 34.2253 79.3671 34.2253C75.1086 34.2253 74.7148 31.8293 74.7148 28.5491V18.3306H83.3655V10.7614H74.7148V1.67935H74.7136ZM42.3757 19.7192C42.3757 24.2602 58.9558 20.4117 58.9558 32.0803C58.9558 39.9016 51.0913 42.1721 44.2744 42.1721C39.8184 42.1721 34.9025 41.0996 31.7577 38.0087L37.721 31.6375C39.5559 33.7826 41.7195 34.9806 44.6681 34.9806C46.8966 34.9806 49.1252 34.4135 49.1252 32.774C49.1252 27.8541 32.5439 32.0163 32.5439 20.3489C32.5439 13.1574 39.2284 10.0037 45.9142 10.0037C50.1089 10.0037 54.7623 11.0135 57.7109 14.0405L51.6825 19.7795C50.2401 18.0772 48.339 17.1941 45.9804 17.1941C44.3406 17.1953 42.3757 17.8902 42.3757 19.7192ZM21.5635 29.9992C21.5635 33.7838 17.9575 35.7406 14.0915 35.7406C11.9292 35.7406 9.4381 34.6657 9.4381 32.3964C9.4381 28.233 16.1239 27.9808 19.1386 27.9808H21.5647V29.9992H21.5635Z" fill="#0B1035"/>
<path fill-rule="evenodd" clip-rule="evenodd" d="M125.791 7.34961C115.04 7.34961 106.322 16.0854 106.322 26.8564C106.322 27.5429 106.358 28.2209 106.427 28.8881C99.0872 33.8815 94.7252 37.724 96.1856 40.7473C97.0332 42.5003 102.492 40.1513 108.9 36.5586C109.644 37.8567 110.534 39.0595 111.545 40.1477C106.777 43.0782 104.514 45.7576 105.651 46.6178C106.463 47.2319 110.271 46.4031 116.273 43.8744C119.087 45.4585 122.334 46.3633 125.791 46.3633C136.54 46.3633 145.258 37.6275 145.258 26.8552C145.258 26.5524 145.249 26.2508 145.236 25.9504C151.375 20.1945 154.826 14.8211 153.828 12.8606C152.307 9.87588 147.712 10.4031 139.411 12.9221C135.902 9.47655 131.094 7.34961 125.791 7.34961ZM126.026 10.9846C134.392 10.9846 141.253 17.4475 141.911 25.6597C139.292 28.1823 135.4 31.0621 129.894 34.2217C124.617 37.2499 120.711 39.3225 117.884 40.6798C115.47 39.2393 113.468 37.1763 112.098 34.7127C116.198 32.283 120.434 29.5564 123.934 27.2099C123.993 27.1593 124.045 27.1122 124.099 27.0639L123.393 32.4374L125.575 26.6429L129.092 31.8438L127.073 26.1881L133.128 26.8721L127.171 24.6004L131.455 20.4044L126.22 23.5158L125.316 17.7587L124.748 23.5556L119.341 20.7314L123.862 24.6909L117.68 25.387L123.172 25.954C123.088 26.018 123.002 26.0867 122.919 26.1579C120.08 28.1618 115.282 30.8521 111.191 32.7945C110.481 30.9849 110.09 29.0148 110.09 26.953C110.09 18.1351 117.227 10.9846 126.026 10.9846ZM120.552 41.9538C123.659 40.4783 127.174 38.6481 131.022 36.4428C135.008 34.1566 138.668 31.5627 141.841 28.94C140.864 36.8204 134.156 42.9213 126.028 42.9213C124.104 42.9213 122.259 42.5799 120.552 41.9538ZM106.849 31.3794C107.088 32.3843 107.403 33.3579 107.79 34.2953C103.589 35.9686 101.647 35.8745 106.849 31.3794ZM112.536 41.1418C113.001 41.5749 113.487 41.9863 113.993 42.3736C110.684 43.5836 110.951 42.5437 112.536 41.1418ZM144.75 22.4107C144.079 19.531 142.772 16.8961 140.984 14.663C145.571 14.2106 148.411 17.1627 144.75 22.4107Z" fill="#0B1035"/>
<path d="M14.6417 50.3024H17.7263V51.2277H15.6422V52.0758H17.6108V53.0012H15.6422V53.9265H17.8419V54.8518H14.6417V50.3024Z" fill="#0B1035"/>
<path d="M18.6823 50.3024H19.6828V53.9265H21.5358V54.8518H18.6823V50.3024Z" fill="#0B1035"/>
<path d="M25.4788 50.3024H26.306L28.2817 54.8518H27.1536L26.7623 53.8879H24.9984L24.6204 54.8518H23.5175L25.4788 50.3024ZM25.8641 51.6258L25.3127 53.0398H26.4215L25.8641 51.6258Z" fill="#0B1035"/>
<path d="M30.9823 51.4146C30.9016 51.3121 30.7909 51.2361 30.6524 51.1866C30.514 51.1371 30.3815 51.113 30.2575 51.113C30.1853 51.113 30.1106 51.1215 30.0336 51.1384C29.9565 51.1552 29.8843 51.183 29.8156 51.2192C29.747 51.2554 29.6916 51.3036 29.6483 51.364C29.6049 51.4243 29.5845 51.4967 29.5845 51.5823C29.5845 51.7199 29.6362 51.8248 29.7386 51.8972C29.8409 51.9696 29.971 52.0323 30.1263 52.0842C30.2828 52.1361 30.4501 52.1867 30.6295 52.2386C30.8089 52.2905 30.9763 52.3629 31.1328 52.457C31.2893 52.5511 31.4181 52.6778 31.5205 52.8358C31.6228 52.9939 31.6746 53.2062 31.6746 53.4716C31.6746 53.7249 31.6276 53.9445 31.5337 54.1339C31.4398 54.3221 31.3122 54.479 31.1521 54.6032C30.9919 54.7275 30.8053 54.8192 30.5946 54.8795C30.3827 54.9398 30.16 54.97 29.924 54.97C29.629 54.97 29.3557 54.9253 29.1029 54.8349C28.85 54.7444 28.6153 54.5996 28.3973 54.3981L29.1089 53.614C29.2112 53.7515 29.3413 53.8577 29.4966 53.9325C29.6531 54.0073 29.8144 54.0447 29.9806 54.0447C30.0613 54.0447 30.1443 54.035 30.2274 54.0157C30.3105 53.9964 30.3851 53.9674 30.4513 53.9288C30.5176 53.8902 30.5705 53.8408 30.6115 53.7804C30.6524 53.7201 30.6729 53.6501 30.6729 53.5681C30.6729 53.4306 30.6199 53.3232 30.5164 53.2436C30.4116 53.164 30.2804 53.0964 30.1215 53.0409C29.9637 52.9854 29.7928 52.9299 29.6086 52.8732C29.4243 52.8177 29.2534 52.7429 29.0957 52.6488C28.9379 52.5547 28.8055 52.4304 28.7007 52.276C28.596 52.1216 28.5442 51.9189 28.5442 51.6656C28.5442 51.4219 28.5924 51.2071 28.6887 51.0225C28.785 50.838 28.9126 50.6847 29.074 50.5605C29.2341 50.4362 29.4195 50.3433 29.629 50.2806C29.8385 50.219 30.054 50.1877 30.2768 50.1877C30.5332 50.1877 30.7812 50.2239 31.0208 50.2975C31.2604 50.3699 31.4759 50.4929 31.6686 50.6642L30.9823 51.4146Z" fill="#0B1035"/>
<path d="M33.2963 51.1891H32.0009V50.3024H35.5924V51.1891H34.2969V54.8518H33.2963V51.1891Z" fill="#0B1035"/>
<path d="M36.0992 50.3024H37.8559C38.087 50.3024 38.3062 50.3253 38.5132 50.3699C38.7203 50.4146 38.9021 50.4894 39.0587 50.5943C39.2152 50.6993 39.3392 50.8404 39.4307 51.019C39.5222 51.1963 39.5679 51.4183 39.5679 51.6837C39.5679 52.0046 39.4849 52.2785 39.3175 52.5029C39.1514 52.7273 38.9069 52.8697 38.5867 52.93L39.7413 54.8518H38.5421L37.5934 53.0337H37.0998V54.8518H36.0992V50.3024ZM37.0998 52.1856H37.6897C37.78 52.1856 37.8751 52.182 37.9751 52.176C38.075 52.1699 38.1665 52.1506 38.2472 52.118C38.3278 52.0855 38.3953 52.036 38.4494 51.9672C38.5024 51.8985 38.5301 51.802 38.5301 51.6777C38.5301 51.5619 38.506 51.4702 38.4591 51.4014C38.4121 51.3327 38.3519 51.2808 38.2797 51.2434C38.2074 51.2072 38.1232 51.1819 38.0292 51.1698C37.9353 51.1565 37.8438 51.1505 37.7535 51.1505H37.0998V52.1856Z" fill="#0B1035"/>
<path d="M40.011 52.5776C40.011 52.2133 40.0724 51.8839 40.194 51.5883C40.3156 51.2928 40.4854 51.0406 40.7033 50.8331C40.9212 50.6256 41.1801 50.4664 41.4799 50.3542C41.7796 50.2432 42.1059 50.1865 42.4611 50.1865C42.8163 50.1865 43.1426 50.242 43.4424 50.3542C43.7422 50.4652 43.9998 50.6256 44.2189 50.8331C44.4369 51.0406 44.6066 51.2928 44.7282 51.5883C44.8498 51.8839 44.9112 52.2133 44.9112 52.5776C44.9112 52.942 44.8498 53.2713 44.7282 53.5669C44.6066 53.8625 44.4369 54.1146 44.2189 54.3221C44.001 54.5296 43.7422 54.6901 43.4424 54.8011C43.1426 54.9121 42.8163 54.9688 42.4611 54.9688C42.1059 54.9688 41.7796 54.9133 41.4799 54.8011C41.1801 54.6901 40.9224 54.5296 40.7033 54.3221C40.4854 54.1146 40.3156 53.8625 40.194 53.5669C40.0724 53.2713 40.011 52.9408 40.011 52.5776ZM41.05 52.5776C41.05 52.7924 41.0825 52.9878 41.15 53.1651C41.2162 53.3425 41.3113 53.4969 41.4353 53.6272C41.5593 53.7575 41.7074 53.8601 41.8808 53.9324C42.0542 54.0048 42.2468 54.0422 42.4611 54.0422C42.6754 54.0422 42.8681 54.006 43.0414 53.9324C43.2148 53.8601 43.3629 53.7575 43.4869 53.6272C43.6109 53.4969 43.706 53.3425 43.7723 53.1651C43.8385 52.9878 43.8722 52.7912 43.8722 52.5776C43.8722 52.3677 43.8385 52.1723 43.7723 51.9925C43.706 51.8127 43.6109 51.6571 43.4869 51.5268C43.3629 51.3965 43.2148 51.294 43.0414 51.2216C42.8681 51.1492 42.6742 51.113 42.4611 51.113C42.2468 51.113 42.0542 51.1492 41.8808 51.2216C41.7074 51.294 41.5593 51.3965 41.4353 51.5268C41.3113 51.6571 41.2162 51.8127 41.15 51.9925C41.0825 52.1723 41.05 52.3677 41.05 52.5776Z" fill="#0B1035"/>
<path d="M52.4591 54.8518H49.7079C49.3528 54.8518 49.0253 54.7999 48.7231 54.6937C48.4221 54.5888 48.162 54.4355 47.9441 54.2341C47.7262 54.0326 47.5552 53.7889 47.4312 53.5018C47.3072 53.2146 47.2458 52.8865 47.2458 52.5185C47.2458 52.1759 47.3084 51.861 47.4348 51.5739C47.5612 51.2867 47.7334 51.0406 47.9513 50.8343C48.1692 50.6292 48.4257 50.4688 48.7207 50.3554C49.0157 50.242 49.3323 50.1853 49.6694 50.1853C50.0065 50.1853 50.3232 50.2432 50.6182 50.359C50.9131 50.4748 51.1696 50.6353 51.3875 50.8404C51.6054 51.0455 51.7776 51.2916 51.904 51.5763C52.0304 51.861 52.0931 52.1747 52.0931 52.5173C52.0931 52.6802 52.075 52.8382 52.0389 52.9926C52.0028 53.1471 51.9486 53.293 51.8751 53.4294C51.8029 53.5669 51.7078 53.69 51.5934 53.7985C51.4778 53.9083 51.343 53.9964 51.1889 54.0652V54.0784H52.4591V54.8518ZM48.2836 52.5197C48.2836 52.7164 48.3197 52.901 48.3932 53.0723C48.4654 53.2436 48.5654 53.392 48.6918 53.5186C48.8182 53.6453 48.9639 53.7443 49.1312 53.8178C49.2974 53.8902 49.478 53.9276 49.6694 53.9276C49.8621 53.9276 50.0415 53.8914 50.2076 53.8178C50.375 53.7455 50.5206 53.6453 50.6471 53.5186C50.7735 53.392 50.8722 53.2436 50.9457 53.0723C51.0179 52.901 51.0552 52.7164 51.0552 52.5197C51.0552 52.3231 51.0191 52.1385 50.9457 51.9672C50.8734 51.7959 50.7735 51.6475 50.6471 51.5208C50.5206 51.3941 50.375 51.2952 50.2076 51.2216C50.0415 51.1492 49.8609 51.113 49.6694 51.113C49.4768 51.113 49.2974 51.1492 49.1312 51.2216C48.9639 51.294 48.8182 51.3941 48.6918 51.5208C48.5654 51.6475 48.4666 51.7959 48.3932 51.9672C48.3197 52.1385 48.2836 52.3219 48.2836 52.5197Z" fill="#0B1035"/>
<path d="M56.7814 53.0977C56.7814 53.3679 56.7405 53.6164 56.6598 53.8432C56.5791 54.0701 56.4575 54.2679 56.2974 54.4344C56.1373 54.6021 55.9374 54.7324 55.6978 54.8265C55.4582 54.9206 55.1825 54.9676 54.8707 54.9676C54.554 54.9676 54.2759 54.9206 54.0375 54.8265C53.7979 54.7324 53.5981 54.6021 53.4379 54.4344C53.2778 54.2667 53.1562 54.0701 53.0755 53.8432C52.9936 53.6164 52.9539 53.3679 52.9539 53.0977V50.3024H53.9544V53.0591C53.9544 53.2002 53.9773 53.3317 54.0219 53.4512C54.0664 53.5706 54.1302 53.6756 54.2109 53.7624C54.2916 53.8505 54.3891 53.9193 54.5022 53.9675C54.6154 54.017 54.7382 54.0411 54.8707 54.0411C55.0031 54.0411 55.1247 54.017 55.2367 53.9675C55.3475 53.918 55.4438 53.8493 55.5256 53.7624C55.6063 53.6744 55.6701 53.5706 55.7147 53.4512C55.7592 53.3317 55.7821 53.2002 55.7821 53.0591V50.3024H56.7826V53.0977H56.7814Z" fill="#0B1035"/>
<path d="M57.7433 50.3024H60.828V51.2277H58.7427V52.0758H60.7112V53.0012H58.7427V53.9265H60.9424V54.8518H57.7433V50.3024Z" fill="#0B1035"/>
<path d="M64.5207 51.1891H63.2252V50.3024H66.8167V51.1891H65.5212V54.8518H64.5207V51.1891Z" fill="#0B1035"/>
<path d="M67.3621 50.3024H70.4467V51.2277H68.3626V52.0758H70.3311V53.0012H68.3626V53.9265H70.5623V54.8518H67.3621V50.3024Z" fill="#0B1035"/>
<path d="M73.2616 50.3024H74.2621V51.9986H76.2054V50.3024H77.2059V54.8518H76.2054V52.8853H74.2621V54.8518H73.2616V50.3024Z" fill="#0B1035"/>
<path d="M79.6235 50.3024H80.4506L82.4264 54.8518H81.2982L80.9069 53.8879H79.1431L78.765 54.8518H77.6622L79.6235 50.3024ZM80.0088 51.6258L79.4573 53.0398H80.5674L80.0088 51.6258Z" fill="#0B1035"/>
<path d="M85.8505 51.4846C85.7518 51.3652 85.6314 51.2723 85.4881 51.2083C85.3449 51.1444 85.1787 51.1118 84.9909 51.1118C84.8031 51.1118 84.6285 51.148 84.4684 51.2204C84.3082 51.2928 84.1686 51.3953 84.0518 51.5256C83.9338 51.6559 83.8423 51.8115 83.7761 51.9913C83.7098 52.171 83.6761 52.3665 83.6761 52.5764C83.6761 52.7912 83.7098 52.9866 83.7761 53.1639C83.8423 53.3413 83.9338 53.4957 84.0482 53.626C84.1637 53.7563 84.2998 53.8588 84.4551 53.9312C84.6116 54.0036 84.779 54.041 84.9584 54.041C85.1631 54.041 85.3449 53.9976 85.5038 53.9119C85.6615 53.8263 85.7927 53.7068 85.8951 53.5524L86.7282 54.1761C86.5356 54.4464 86.2924 54.6454 85.9974 54.7733C85.7024 54.9024 85.399 54.9664 85.0872 54.9664C84.732 54.9664 84.4057 54.9109 84.106 54.7987C83.8062 54.6877 83.5485 54.5272 83.3294 54.3197C83.1115 54.1122 82.9417 53.8601 82.8201 53.5645C82.6985 53.2689 82.6371 52.9395 82.6371 52.5752C82.6371 52.2109 82.6985 51.8815 82.8201 51.5859C82.9417 51.2904 83.1115 51.0382 83.3294 50.8307C83.5473 50.6232 83.8062 50.4639 84.106 50.3517C84.4057 50.2408 84.732 50.1841 85.0872 50.1841C85.2148 50.1841 85.3485 50.1961 85.4881 50.219C85.6266 50.2432 85.7639 50.2806 85.8987 50.3312C86.0335 50.3831 86.1624 50.4507 86.2864 50.5363C86.4104 50.622 86.5212 50.7269 86.6199 50.8512L85.8505 51.4846Z" fill="#0B1035"/>
<path d="M87.3122 50.3024H90.3968V51.2277H88.3127V52.0758H90.2812V53.0012H88.3127V53.9265H90.5124V54.8518H87.3122V50.3024Z" fill="#0B1035"/>
<path d="M93.213 50.3024H94.7264L95.7714 53.2714H95.7847L96.837 50.3024H98.3444V54.8518H97.3438V51.3628H97.3306L96.1374 54.8518H95.3741L94.2267 51.3628H94.2135V54.8518H93.213V50.3024Z" fill="#0B1035"/>
<path d="M99.2534 50.3024H100.254V54.8518H99.2534V50.3024Z" fill="#0B1035"/>
<path d="M101.203 50.3024H102.203V53.9265H104.056V54.8518H101.203V50.3024Z" fill="#0B1035"/>
<path d="M104.647 50.3024H105.648V53.9265H107.501V54.8518H104.647V50.3024Z" fill="#0B1035"/>
<path d="M107.808 52.5776C107.808 52.2133 107.869 51.8839 107.991 51.5883C108.112 51.2928 108.282 51.0406 108.5 50.8331C108.718 50.6256 108.977 50.4664 109.277 50.3542C109.576 50.2432 109.903 50.1865 110.258 50.1865C110.613 50.1865 110.939 50.242 111.239 50.3542C111.539 50.4652 111.796 50.6256 112.014 50.8331C112.232 51.0406 112.402 51.2928 112.524 51.5883C112.645 51.8839 112.707 52.2133 112.707 52.5776C112.707 52.942 112.645 53.2713 112.524 53.5669C112.402 53.8625 112.232 54.1146 112.014 54.3221C111.796 54.5296 111.538 54.6901 111.239 54.8011C110.939 54.9121 110.613 54.9688 110.258 54.9688C109.903 54.9688 109.576 54.9133 109.277 54.8011C108.977 54.6901 108.719 54.5296 108.5 54.3221C108.282 54.1146 108.112 53.8625 107.991 53.5669C107.869 53.2713 107.808 52.9408 107.808 52.5776ZM108.847 52.5776C108.847 52.7924 108.88 52.9878 108.947 53.1651C109.013 53.3425 109.108 53.4969 109.232 53.6272C109.356 53.7575 109.504 53.8601 109.677 53.9324C109.851 54.0048 110.043 54.0422 110.258 54.0422C110.471 54.0422 110.665 54.006 110.838 53.9324C111.012 53.8601 111.16 53.7575 111.284 53.6272C111.408 53.4969 111.503 53.3425 111.569 53.1651C111.635 52.9878 111.669 52.7912 111.669 52.5776C111.669 52.3677 111.635 52.1723 111.569 51.9925C111.503 51.8127 111.408 51.6571 111.284 51.5268C111.16 51.3965 111.012 51.294 110.838 51.2216C110.665 51.1492 110.472 51.113 110.258 51.113C110.043 51.113 109.851 51.1492 109.677 51.2216C109.504 51.294 109.356 51.3965 109.232 51.5268C109.108 51.6571 109.013 51.8127 108.947 51.9925C108.88 52.1723 108.847 52.3677 108.847 52.5776Z" fill="#0B1035"/>
<path d="M113.387 50.3024H114.746L116.676 53.4644H116.69V50.3024H117.69V54.8518H116.381L114.4 51.6126H114.386V54.8518H113.386V50.3024H113.387Z" fill="#0B1035"/>
<path d="M120.108 50.3024H120.935L122.911 54.8518H121.782L121.391 53.8879H119.627L119.249 54.8518H118.146L120.108 50.3024ZM120.493 51.6258L119.942 53.0398H121.052L120.493 51.6258Z" fill="#0B1035"/>
<path d="M123.366 50.3024H125.123C125.355 50.3024 125.574 50.3253 125.781 50.3699C125.988 50.4146 126.17 50.4894 126.326 50.5943C126.483 50.6993 126.607 50.8404 126.698 51.019C126.79 51.1963 126.837 51.4183 126.837 51.6837C126.837 52.0046 126.754 52.2785 126.586 52.5029C126.419 52.7273 126.176 52.8697 125.856 52.93L127.01 54.8518H125.811L124.862 53.0337H124.369V54.8518H123.368V50.3024H123.366ZM124.366 52.1856H124.956C125.046 52.1856 125.142 52.182 125.241 52.176C125.341 52.1699 125.433 52.1506 125.514 52.118C125.594 52.0855 125.662 52.036 125.716 51.9672C125.769 51.8985 125.797 51.802 125.797 51.6777C125.797 51.5619 125.772 51.4702 125.725 51.4014C125.679 51.3327 125.618 51.2808 125.546 51.2434C125.474 51.2072 125.39 51.1819 125.296 51.1698C125.202 51.1565 125.11 51.1505 125.02 51.1505H124.366V52.1856Z" fill="#0B1035"/>
<path d="M127.509 50.3024H128.509V54.8518H127.509V50.3024Z" fill="#0B1035"/>
<path d="M129.176 52.5776C129.176 52.2133 129.238 51.8839 129.359 51.5883C129.481 51.2928 129.651 51.0406 129.868 50.8331C130.086 50.6256 130.345 50.4664 130.645 50.3542C130.945 50.2432 131.271 50.1865 131.626 50.1865C131.981 50.1865 132.308 50.242 132.608 50.3542C132.907 50.4652 133.165 50.6256 133.383 50.8331C133.601 51.0406 133.771 51.2928 133.892 51.5883C134.014 51.8839 134.075 52.2133 134.075 52.5776C134.075 52.942 134.014 53.2713 133.892 53.5669C133.771 53.8625 133.601 54.1146 133.383 54.3221C133.165 54.5296 132.906 54.6901 132.608 54.8011C132.308 54.9121 131.981 54.9688 131.626 54.9688C131.271 54.9688 130.945 54.9133 130.645 54.8011C130.345 54.6901 130.088 54.5296 129.868 54.3221C129.651 54.1146 129.481 53.8625 129.359 53.5669C129.238 53.2713 129.176 52.9408 129.176 52.5776ZM130.215 52.5776C130.215 52.7924 130.249 52.9878 130.315 53.1651C130.381 53.3425 130.476 53.4969 130.6 53.6272C130.724 53.7575 130.873 53.8601 131.046 53.9324C131.219 54.0048 131.412 54.0422 131.626 54.0422C131.839 54.0422 132.033 54.006 132.207 53.9324C132.38 53.8601 132.528 53.7575 132.652 53.6272C132.776 53.4969 132.871 53.3425 132.937 53.1651C133.004 52.9878 133.037 52.7912 133.037 52.5776C133.037 52.3677 133.004 52.1723 132.937 51.9925C132.871 51.8127 132.776 51.6571 132.652 51.5268C132.528 51.3965 132.38 51.294 132.207 51.2216C132.033 51.1492 131.841 51.113 131.626 51.113C131.412 51.113 131.219 51.1492 131.046 51.2216C130.873 51.294 130.724 51.3965 130.6 51.5268C130.476 51.6571 130.381 51.8127 130.315 51.9925C130.248 52.1723 130.215 52.3677 130.215 52.5776Z" fill="#0B1035"/>
</svg>
